<svg width="105" height="100" viewBox="0 0 105 100" fill="none" xmlns="http://www.w3.org/2000/svg">
<g filter="url(#filter0_d_228_7)">
<path d="M88.8008 41.4707L86.6055 35.9824L82.7129 26.25C79.3711 17.8965 71.4004 12.5 62.4023 12.5H37.5977C28.6016 12.5 20.6289 17.8965 17.2871 26.25L13.3945 35.9824L11.1992 41.4707C6.48828 43.2617 3.125 47.7852 3.125 53.125V62.5C3.125 65.6484 4.32812 68.4902 6.25 70.6895V81.25C6.25 84.7012 9.04883 87.5 12.5 87.5H18.75C22.2012 87.5 25 84.7012 25 81.25V75H75V81.25C75 84.7012 77.7988 87.5 81.25 87.5H87.5C90.9512 87.5 93.75 84.7012 93.75 81.25V70.6895C95.6719 68.4922 96.875 65.6504 96.875 62.5V53.125C96.875 47.7852 93.5117 43.2617 88.8008 41.4707ZM28.8926 30.8926C30.3164 27.334 33.7637 25 37.5977 25H62.4023C66.2363 25 69.6836 27.334 71.1074 30.8926L75 40.625H25L28.8926 30.8926ZM18.75 62.4609C15 62.4609 12.5 59.9687 12.5 56.2305C12.5 52.4922 15 50 18.75 50C22.5 50 28.125 55.6074 28.125 59.3457C28.125 63.084 22.5 62.4609 18.75 62.4609ZM81.25 62.4609C77.5 62.4609 71.875 63.084 71.875 59.3457C71.875 55.6074 77.5 50 81.25 50C85 50 87.5 52.4922 87.5 56.2305C87.5 59.9687 85 62.4609 81.25 62.4609Z" fill="#C2DFDF"/>
</g>
<defs>
<filter id="filter0_d_228_7" x="3.125" y="12.5" width="101.75" height="75" filterUnits="userSpaceOnUse" color-interpolation-filters="sRGB">
<feFlood flood-opacity="0" result="BackgroundImageFix"/>
<feColorMatrix in="SourceAlpha" type="matrix" values="0 0 0 0 0 0 0 0 0 0 0 0 0 0 0 0 0 0 127 0" result="hardAlpha"/>
<feOffset dx="8"/>
<feComposite in2="hardAlpha" operator="out"/>
<feColorMatrix type="matrix" values="0 0 0 0 0 0 0 0 0 0 0 0 0 0 0 0 0 0 0.25 0"/>
<feBlend mode="normal" in2="BackgroundImageFix" result="effect1_dropShadow_228_7"/>
<feBlend mode="normal" in="SourceGraphic" in2="effect1_dropShadow_228_7" result="shape"/>
</filter>
</defs>
</svg>
