<svg width="108" height="90" viewBox="0 0 108 90" fill="none" xmlns="http://www.w3.org/2000/svg">
<g filter="url(#filter0_d_228_6)">
<path d="M91.6875 52.868L99.8946 16.7569C100.487 14.1496 98.5054 11.6668 95.8316 11.6668H27.6403L26.049 3.88726C25.6524 1.9482 23.9462 0.555664 21.9668 0.555664H4.16667C1.86545 0.555664 0 2.42112 0 4.72233V7.50011C0 9.80132 1.86545 11.6668 4.16667 11.6668H16.2991L28.495 71.2909C25.5773 72.9689 23.6111 76.115 23.6111 79.7223C23.6111 85.0918 27.9639 89.4445 33.3333 89.4445C38.7028 89.4445 43.0556 85.0918 43.0556 79.7223C43.0556 77.0011 41.9363 74.5426 40.1347 72.7779H76.5318C74.7304 74.5426 73.6111 77.0011 73.6111 79.7223C73.6111 85.0918 77.9639 89.4445 83.3333 89.4445C88.7028 89.4445 93.0556 85.0918 93.0556 79.7223C93.0556 75.873 90.8181 72.5466 87.5731 70.9715L88.5309 66.7569C89.1234 64.1496 87.1417 61.6668 84.4679 61.6668H37.8675L36.7312 56.1112H87.6245C89.57 56.1112 91.2564 54.765 91.6875 52.868Z" fill="#C2DFDF"/>
</g>
<defs>
<filter id="filter0_d_228_6" x="0" y="0.555664" width="108" height="88.8889" filterUnits="userSpaceOnUse" color-interpolation-filters="sRGB">
<feFlood flood-opacity="0" result="BackgroundImageFix"/>
<feColorMatrix in="SourceAlpha" type="matrix" values="0 0 0 0 0 0 0 0 0 0 0 0 0 0 0 0 0 0 127 0" result="hardAlpha"/>
<feOffset dx="8"/>
<feComposite in2="hardAlpha" operator="out"/>
<feColorMatrix type="matrix" values="0 0 0 0 0 0 0 0 0 0 0 0 0 0 0 0 0 0 0.25 0"/>
<feBlend mode="normal" in2="BackgroundImageFix" result="effect1_dropShadow_228_6"/>
<feBlend mode="normal" in="SourceGraphic" in2="effect1_dropShadow_228_6" result="shape"/>
</filter>
</defs>
</svg>
