<svg width="25" height="17" viewBox="0 0 25 17" fill="none" xmlns="http://www.w3.org/2000/svg">
<path d="M24.849 7.85365C22.4952 3.16935 17.8355 0 12.5 0C7.16449 0 2.50345 3.17156 0.151018 7.85409C0.0517307 8.05442 0 8.27575 0 8.50022C0 8.72469 0.0517307 8.94602 0.151018 9.14635C2.50476 13.8307 7.16449 17 12.5 17C17.8355 17 22.4965 13.8284 24.849 9.14591C24.9483 8.94558 25 8.72425 25 8.49978C25 8.2753 24.9483 8.05397 24.849 7.85365ZM12.5 14.875C11.2639 14.875 10.0555 14.5011 9.02768 13.8006C7.99987 13.1001 7.19879 12.1045 6.72574 10.9396C6.25269 9.77473 6.12892 8.49293 6.37008 7.2563C6.61124 6.01967 7.20649 4.88375 8.08057 3.99219C8.95465 3.10063 10.0683 2.49347 11.2807 2.24749C12.4931 2.00151 13.7497 2.12776 14.8918 2.61027C16.0338 3.09278 17.0099 3.90988 17.6967 4.95824C18.3835 6.0066 18.75 7.23914 18.75 8.5C18.7504 9.33729 18.589 10.1665 18.2751 10.9401C17.9611 11.7137 17.5008 12.4167 16.9203 13.0087C16.3399 13.6008 15.6507 14.0703 14.8922 14.3906C14.1338 14.7108 13.3209 14.8754 12.5 14.875ZM12.5 4.25C12.1281 4.2553 11.7586 4.31174 11.4015 4.41779C11.6958 4.82582 11.8371 5.32794 11.7996 5.8331C11.7622 6.33826 11.5485 6.81299 11.1973 7.17121C10.8461 7.52943 10.3806 7.74741 9.88539 7.78563C9.39014 7.82384 8.89785 7.67976 8.49782 7.3795C8.27003 8.23552 8.31115 9.14285 8.61539 9.97378C8.91964 10.8047 9.47169 11.5174 10.1938 12.0115C10.916 12.5057 11.7719 12.7564 12.641 12.7284C13.5102 12.7004 14.3489 12.3951 15.039 11.8554C15.7291 11.3158 16.236 10.569 16.4882 9.7201C16.7404 8.87124 16.7253 7.96307 16.445 7.12343C16.1647 6.28379 15.6333 5.55494 14.9256 5.03949C14.2179 4.52403 13.3696 4.24791 12.5 4.25Z" fill="#4A707A"/>
</svg>
