<svg width="80" height="80" viewBox="0 0 80 80" fill="none" xmlns="http://www.w3.org/2000/svg">
<path d="M70.9375 0.625H9.0625C6.82474 0.625 4.67862 1.51395 3.09629 3.09629C1.51395 4.67862 0.625 6.82474 0.625 9.0625L0.625 70.9375C0.625 73.1753 1.51395 75.3214 3.09629 76.9037C4.67862 78.4861 6.82474 79.375 9.0625 79.375H33.1885V52.6018H22.1143V40H33.1885V30.3953C33.1885 19.4705 39.6924 13.4359 49.6539 13.4359C54.4246 13.4359 59.4133 14.2867 59.4133 14.2867V25.0094H53.9166C48.5008 25.0094 46.8115 28.3703 46.8115 31.8174V40H58.9018L56.9682 52.6018H46.8115V79.375H70.9375C73.1753 79.375 75.3214 78.4861 76.9037 76.9037C78.4861 75.3214 79.375 73.1753 79.375 70.9375V9.0625C79.375 6.82474 78.4861 4.67862 76.9037 3.09629C75.3214 1.51395 73.1753 0.625 70.9375 0.625Z" fill="#4A707A"/>
</svg>
