<svg width="80" height="80" viewBox="0 0 80 80" fill="none" xmlns="http://www.w3.org/2000/svg">
<path d="M40.0176 19.7852C28.8379 19.7852 19.8203 28.8027 19.8203 39.9824C19.8203 51.1621 28.8379 60.1797 40.0176 60.1797C51.1973 60.1797 60.2148 51.1621 60.2148 39.9824C60.2148 28.8027 51.1973 19.7852 40.0176 19.7852ZM40.0176 53.1133C32.793 53.1133 26.8867 47.2246 26.8867 39.9824C26.8867 32.7402 32.7754 26.8516 40.0176 26.8516C47.2598 26.8516 53.1484 32.7402 53.1484 39.9824C53.1484 47.2246 47.2422 53.1133 40.0176 53.1133ZM65.752 18.959C65.752 21.5781 63.6426 23.6699 61.041 23.6699C58.4219 23.6699 56.3301 21.5605 56.3301 18.959C56.3301 16.3574 58.4395 14.248 61.041 14.248C63.6426 14.248 65.752 16.3574 65.752 18.959ZM79.1289 23.7402C78.8301 17.4297 77.3887 11.8398 72.7656 7.23437C68.1602 2.62891 62.5703 1.1875 56.2598 0.871094C49.7559 0.501953 30.2617 0.501953 23.7578 0.871094C17.4648 1.16992 11.875 2.61133 7.25195 7.2168C2.62891 11.8223 1.20508 17.4121 0.888672 23.7227C0.519531 30.2266 0.519531 49.7207 0.888672 56.2246C1.1875 62.5352 2.62891 68.125 7.25195 72.7305C11.875 77.3359 17.4473 78.7773 23.7578 79.0937C30.2617 79.4629 49.7559 79.4629 56.2598 79.0937C62.5703 78.7949 68.1602 77.3535 72.7656 72.7305C77.3711 68.125 78.8125 62.5352 79.1289 56.2246C79.4981 49.7207 79.4981 30.2441 79.1289 23.7402ZM70.7266 63.2031C69.3555 66.6484 66.7012 69.3027 63.2383 70.6914C58.0527 72.748 45.748 72.2734 40.0176 72.2734C34.2871 72.2734 21.9648 72.7305 16.7969 70.6914C13.3516 69.3203 10.6973 66.666 9.30859 63.2031C7.25195 58.0176 7.72656 45.7129 7.72656 39.9824C7.72656 34.252 7.26953 21.9297 9.30859 16.7617C10.6797 13.3164 13.334 10.6621 16.7969 9.27344C21.9824 7.2168 34.2871 7.69141 40.0176 7.69141C45.748 7.69141 58.0703 7.23437 63.2383 9.27344C66.6836 10.6445 69.3379 13.2988 70.7266 16.7617C72.7832 21.9473 72.3086 34.252 72.3086 39.9824C72.3086 45.7129 72.7832 58.0352 70.7266 63.2031Z" fill="#4A707A"/>
</svg>
