<svg width="80" height="80" viewBox="0 0 80 80" fill="none" xmlns="http://www.w3.org/2000/svg">
<path d="M70.9375 0.625H9.0625C4.4043 0.625 0.625 4.4043 0.625 9.0625V70.9375C0.625 75.5957 4.4043 79.375 9.0625 79.375H70.9375C75.5957 79.375 79.375 75.5957 79.375 70.9375V9.0625C79.375 4.4043 75.5957 0.625 70.9375 0.625ZM62.3418 28.5391C62.377 29.0313 62.377 29.541 62.377 30.0332C62.377 45.2734 50.7754 62.834 29.5762 62.834C23.0371 62.834 16.9727 60.9355 11.875 57.666C12.8066 57.7715 13.7031 57.8066 14.6523 57.8066C20.0488 57.8066 25.0059 55.9785 28.9609 52.8848C23.8984 52.7793 19.6445 49.457 18.1855 44.8867C19.9609 45.1504 21.5605 45.1504 23.3887 44.6758C18.1152 43.6035 14.1602 38.9629 14.1602 33.3555V33.2148C15.6895 34.0762 17.4824 34.6035 19.3633 34.6738C17.782 33.622 16.4857 32.1951 15.5901 30.5204C14.6945 28.8457 14.2274 26.9753 14.2305 25.0762C14.2305 22.9316 14.793 20.9629 15.7949 19.2578C21.4727 26.2539 29.998 30.8242 39.5605 31.3164C37.9258 23.4941 43.7793 17.1484 50.8105 17.1484C54.1328 17.1484 57.1211 18.5371 59.2305 20.7871C61.832 20.2949 64.3281 19.3281 66.543 18.0098C65.6816 20.6816 63.8711 22.9316 61.4805 24.3555C63.8008 24.1094 66.0508 23.459 68.125 22.5625C66.5605 24.8652 64.5918 26.9043 62.3418 28.5391Z" fill="#4A707A"/>
</svg>
